<svg width="22" height="19" viewBox="0 0 22 19" fill="none" xmlns="http://www.w3.org/2000/svg">
<path d="M6.32568 6.60059L6.69709 7.86713" stroke="white" stroke-width="2" stroke-linecap="round" stroke-linejoin="round"/>
<path d="M11.5257 6.60059L11.1543 7.86713" stroke="white" stroke-width="2" stroke-linecap="round" stroke-linejoin="round"/>
<path d="M3.45831 10.4001H15.6107L17.0964 4.06738H2.24009C2.13145 4.06772 2.02422 4.08838 1.92595 4.12788C1.82769 4.16739 1.74079 4.2248 1.67138 4.29605C1.60196 4.36731 1.55173 4.45067 1.52422 4.54027C1.4967 4.62988 1.49258 4.72353 1.51213 4.81464L2.73035 9.88082C2.75877 10.0273 2.84784 10.1602 2.9814 10.2555C3.11497 10.3508 3.28417 10.4021 3.45831 10.4001V10.4001Z" stroke="white" stroke-width="2" stroke-linecap="round" stroke-linejoin="round"/>
<path d="M17.0972 4.06727L17.7211 2.0408C17.7554 1.89776 17.8465 1.7692 17.9792 1.67688C18.1119 1.58456 18.2778 1.53415 18.4491 1.53418H20.8112" stroke="white" stroke-width="2" stroke-linecap="round" stroke-linejoin="round"/>
<path d="M15.6108 10.4004L14.9869 13.0601C14.9526 13.2032 14.8614 13.3317 14.7288 13.4241C14.5961 13.5164 14.4301 13.5668 14.2589 13.5668H5.21143" stroke="white" stroke-width="2" stroke-linecap="round" stroke-linejoin="round"/>
<path d="M5.95424 17.9999C6.36449 17.9999 6.69705 17.7164 6.69705 17.3667C6.69705 17.0169 6.36449 16.7334 5.95424 16.7334C5.544 16.7334 5.21143 17.0169 5.21143 17.3667C5.21143 17.7164 5.544 17.9999 5.95424 17.9999Z" stroke="white" stroke-width="2" stroke-linecap="round" stroke-linejoin="round"/>
<path d="M13.383 17.9999C13.7932 17.9999 14.1258 17.7164 14.1258 17.3667C14.1258 17.0169 13.7932 16.7334 13.383 16.7334C12.9727 16.7334 12.6401 17.0169 12.6401 17.3667C12.6401 17.7164 12.9727 17.9999 13.383 17.9999Z" stroke="white" stroke-width="2" stroke-linecap="round" stroke-linejoin="round"/>
</svg>
