<svg xmlns="http://www.w3.org/2000/svg" width="35" height="30" viewBox="0 0 35 30" fill="none">
  <path d="M9.28125 9.75269L9.92289 11.9407" stroke="white" stroke-linecap="round" stroke-linejoin="round"/>
  <path d="M18.2647 9.75269L17.623 11.9407" stroke="white" stroke-linecap="round" stroke-linejoin="round"/>
  <path d="M4.32746 16.3165H25.3218L27.8883 5.37622H2.2229C2.03521 5.37681 1.84996 5.41249 1.6802 5.48074C1.51044 5.549 1.36032 5.64817 1.2404 5.77126C1.12048 5.89436 1.0337 6.03838 0.986169 6.19318C0.938637 6.34797 0.931512 6.50977 0.965298 6.66717L3.06986 15.4194C3.11895 15.6724 3.27283 15.9021 3.50358 16.0667C3.73432 16.2313 4.02663 16.3199 4.32746 16.3165V16.3165Z" stroke="white" stroke-linecap="round" stroke-linejoin="round"/>
  <path d="M27.8896 5.37611L28.9676 1.87522C29.0268 1.62811 29.1843 1.40602 29.4134 1.24653C29.6426 1.08704 29.9294 0.999949 30.2252 1H34.306" stroke="white" stroke-linecap="round" stroke-linejoin="round"/>
  <path d="M25.3222 16.3171L24.2443 20.9121C24.1851 21.1592 24.0276 21.3813 23.7984 21.5407C23.5693 21.7002 23.2825 21.7873 22.9867 21.7873H7.35645" stroke="white" stroke-linecap="round" stroke-linejoin="round"/>
  <path d="M8.63972 29.4459C9.34845 29.4459 9.92299 28.9561 9.92299 28.3518C9.92299 27.7476 9.34845 27.2578 8.63972 27.2578C7.93098 27.2578 7.35645 27.7476 7.35645 28.3518C7.35645 28.9561 7.93098 29.4459 8.63972 29.4459Z" stroke="white" stroke-linecap="round" stroke-linejoin="round"/>
  <path d="M21.4727 29.4459C22.1815 29.4459 22.756 28.9561 22.756 28.3518C22.756 27.7476 22.1815 27.2578 21.4727 27.2578C20.764 27.2578 20.1895 27.7476 20.1895 28.3518C20.1895 28.9561 20.764 29.4459 21.4727 29.4459Z" stroke="white" stroke-linecap="round" stroke-linejoin="round"/>
</svg>