<svg xmlns="http://www.w3.org/2000/svg" width="23" height="23" viewBox="0 0 23 23" fill="none">
<path d="M11.5 0.25C5.29 0.25 0.25 5.29 0.25 11.5C0.25 17.71 5.29 22.75 11.5 22.75C17.71 22.75 22.75 17.71 22.75 11.5C22.75 5.29 17.71 0.25 11.5 0.25ZM11.5 3.625C13.3675 3.625 14.875 5.1325 14.875 7C14.875 8.8675 13.3675 10.375 11.5 10.375C9.6325 10.375 8.125 8.8675 8.125 7C8.125 5.1325 9.6325 3.625 11.5 3.625ZM11.5 19.6C8.6875 19.6 6.20125 18.16 4.75 15.9775C4.78375 13.7387 9.25 12.5125 11.5 12.5125C13.7388 12.5125 18.2162 13.7387 18.25 15.9775C16.7987 18.16 14.3125 19.6 11.5 19.6Z" fill="#4379A0"/>
</svg>