<svg width="166" height="93" style="shape-rendering:geometricPrecision;text-rendering:geometricPrecision;image-rendering:optimizeQuality;fill-rule:evenodd;clip-rule:evenodd" xmlns="http://www.w3.org/2000/svg"><g style="fill:#000;opacity:1;stroke:none;stroke-opacity:1"><path style="opacity:1;fill:#000;stroke:none;stroke-opacity:1" fill="#42779f" d="M71.5-.5h31a504.704 504.704 0 0 1 45 7.5 72.373 72.373 0 0 1 14 8 83.43 83.43 0 0 1 4 7.5v11c-5.866 6.442-13.199 10.608-22 12.5a414.283 414.283 0 0 1-36 5c-6.809 3.567-13.975 4.4-21.5 2.5.135 1.925.302 3.925.5 6 3.687.676 7.02 2.176 10 4.5a119.521 119.521 0 0 0 6 8.5 55.108 55.108 0 0 1-9 15.5c-7.331 4.775-14.498 4.608-21.5-.5-1.646-3.785-3.813-7.118-6.5-10 1.198-6.755 4.365-12.422 9.5-17 .21-2.734 1.044-5.234 2.5-7.5-12.007-.534-24.007-1.2-36-2-14.812-.484-27.312-5.984-37.5-16.5-1.274-2.891-2.774-5.558-4.5-8v-11c3.488-5.924 8.822-9.09 16-9.5C34.147 2.354 52.814.187 71.5-.5Zm79 22c-.283.79-.783 1.456-1.5 2-5.751-2.983-11.917-4.816-18.5-5.5-29.284-4.291-58.617-4.624-88-1a134.149 134.149 0 0 0-25 4.5c-3.636-1.707-3.636-2.874 0-3.5-1.535-3.006-2.035-6.173-1.5-9.5a56.082 56.082 0 0 0 3 10c.313-3.095-.187-6.095-1.5-9l1-1a90 90 0 0 0 3.5 9c.092-3.047-.408-6.047-1.5-9l1-1a70.3 70.3 0 0 1 3.5 9c-.32-2.96-.32-5.96 0-9l2 8c.711-2.4.544-4.732-.5-7a4.452 4.452 0 0 1 1.5-2c.14 2.543.806 4.877 2 7-.234-9.208.6-9.208 2.5 0-.111-2.134.222-4.467 1-7a32.45 32.45 0 0 0 2.5 6 15.967 15.967 0 0 1 .5-7c1.139 6.573 1.972 6.573 2.5 0 .29 1.544.956 2.877 2 4 .122-1.937.955-3.27 2.5-4 2.676-.037 5.51-.037 8.5 0 .278-.916.778-1.582 1.5-2 1.73-1.412 3.23-1.078 4.5 1 1.786-1.6 3.953-2.433 6.5-2.5a275.344 275.344 0 0 1 38-.5c.087 3.098-.413 3.432-1.5 1-.699 1.574-.365 2.907 1 4 .667-1.333 1.333-1.333 2 0 .974-2.378 1.641-2.044 2 1 .914-3.685 1.581-3.352 2 1 .419-4.352 1.086-4.685 2-1 .914-3.685 1.581-3.352 2 1 .914-3.685 1.581-3.352 2 1 .667-5.333 1.333-5.333 2 0 .667-5.333 1.333-5.333 2 0a7.292 7.292 0 0 1 2-3c-.578 6.603.089 6.603 2 0 .667 6.667 1.333 6.667 2 0 .944.763 1.444 1.763 1.5 3-.543 1.364-.71 2.697-.5 4 1.163-1.785 1.83-3.785 2-6l1 7c.17-2.215.837-4.215 2-6-.66 9.302.007 9.302 2 0l1 8c.52-7.92 1.353-7.92 2.5 0 1.342-1.402 2.176-1.069 2.5 1 .667-4 1.333-4 2 0l1-3a10.256 10.256 0 0 0 1.5 4c1.342-1.402 2.176-1.069 2.5 1 .667-4 1.333-4 2 0 .816 1.323 1.983 1.99 3.5 2Zm4-8a211.369 211.369 0 0 0-34-8.5c12.271-.599 23.605 2.234 34 8.5Zm-140 1c-1.203-1.443-1.703-3.11-1.5-5 1.27 1.405 1.77 3.071 1.5 5Zm-11 5-2-1c.801-2.293 1.468-1.96 2 1Zm71-3a369.356 369.356 0 0 1 62 4.5c12.501 1.668 12.835 3.668 1 6a1326.578 1326.578 0 0 0-34 4 3773.57 3773.57 0 0 1-57 0 99.557 99.557 0 0 1-25-7c-1.333-.667-1.333-1.333 0-2a574.287 574.287 0 0 1 53-5.5Zm86 4c-1.125 1.152-1.125 2.152 0 3-1.125 1.152-1.125 2.152 0 3-1.531 1.424-1.198 2.091 1 2-1.435 1.324-2.435 2.99-3 5 .124.607.457.94 1 1a82.739 82.739 0 0 0-12.5 8 3.942 3.942 0 0 1-2-1 49.686 49.686 0 0 1-12.5 3.5 214.046 214.046 0 0 1-25 2.5 29.23 29.23 0 0 0-1-9 2.427 2.427 0 0 0 2-.5c-1.333-.667-1.333-1.333 0-2-1.566-.765-2.899-.598-4 .5-2.486-.962-2.486-1.795 0-2.5 9.451-.121 18.617-1.621 27.5-4.5 1.894.04 2.894.706 3 2 1.465-.83 2.965-.996 4.5-.5l-2 1c2.361.197 4.028 1.364 5 3.5.327-2.167.994-4.5 2-7 3.155-.105 5.822-1.272 8-3.5l-1-1c2.932-1.3 5.266-3.3 7-6 2.521-.33 3.188.504 2 2.5Zm-159-2a5.728 5.728 0 0 0 1 3c-2.052-.553-2.385-1.553-1-3Zm5 1c1.53.567 3.03 1.233 4.5 2l1-1a94.358 94.358 0 0 0 8.5 8c-1.879-.107-2.212.393-1 1.5 1.544 1.187 3.211 1.52 5 1-.916-.278-1.582-.778-2-1.5 3.343.724 6.676 1.557 10 2.5-2.667.667-2.667 1.333 0 2 9.897.144 19.73.977 29.5 2.5a126.612 126.612 0 0 1 15.5-2c-.942 5.424-1.276 10.757-1 16a28.04 28.04 0 0 0-5-1.5c5.227-.887 5.06-1.387-.5-1.5-12.566-.54-22.4-.04-29.5 1.5l1-1c-5.675-.464-6.008-1.13-1-2a141.896 141.896 0 0 1-19-3.5 3.646 3.646 0 0 0-1.5 1c-6.306-3.657-11.973-7.99-17-13-.37-2.164-1.204-4.164-2.5-6 .346-1.196.846-1.196 1.5 0a2.427 2.427 0 0 0 .5-2c.838-.342 1.172-1.008 1-2 1.425 1.531 2.091 1.198 2-1Zm156 4h-2c1.048-2.433 1.714-2.433 2 0Zm0 0c.639.597.972 1.43 1 2.5-.184 1.376-.851 2.209-2 2.5 1.125-1.152 1.125-2.152 0-3l1-2Zm-57 22a4.934 4.934 0 0 1-.5 3c-1.937-.321-3.437.679-4.5 3-5.723 1.353-11.39 1.186-17-.5-2.322-5.335-2.655-10.835-1-16.5 6.45-.408 12.618.592 18.5 3 1.113 1.26 1.28 2.427.5 3.5 1.786 1.196 3.119 2.696 4 4.5Zm23-7c1.837.14 2.17.806 1 2-.798-.457-1.131-1.124-1-2Zm-17 2c2.26.738 2.427 1.738.5 3-1.728-.852-1.895-1.852-.5-3Zm-33 14c1.524 1.908 2.857 4.075 4 6.5-1.903.774-3.57.44-5-1a4.452 4.452 0 0 0 2-1.5 6.845 6.845 0 0 1-1-4Zm12 14c1.21-.432 2.21-1.099 3-2l2 1c.418.722 1.084 1.222 2 1.5-1.62.236-2.62 1.069-3 2.5.923-.803 1.923-.97 3-.5-1.153 1.883-2.82 2.716-5 2.5-4.765 1.504-9.765 2.504-15 3-1.239-.442-2.239-1.11-3-2-2.876-4.174-2.042-8.174 2.5-12 4.62.093 8.954.093 13 0l1.5 1.5c.286 1.388-.048 2.888-1 4.5Zm8 6c-3.278 3.323-7.278 4.823-12 4.5 1.162-.827 2.329-1.66 3.5-2.5a3.943 3.943 0 0 1 2 1c1.843-1.671 4.01-2.671 6.5-3Zm-27 4c4.515-1.312 9.182-1.312 14 0-4.772 1.904-10.106 2.404-16 1.5l7-1c-1.634-.493-3.3-.66-5-.5Zm0 3c7.677-.257 15.344.243 23 1.5L93 84.5c-1.388-1.054-2.888-1.22-4.5-.5 2.405 2.032 1.905 3.532-1.5 4.5-3.065-5.11-5.898-4.776-8.5 1-3.783-1.447-6.117-4.114-7-8Z"/></g><g style="fill:#000;opacity:1;stroke:none;stroke-opacity:1"><path style="opacity:.275;fill:#000;stroke:none;stroke-opacity:1" fill="#42779f" d="M92.5 2.5c.543.06.876.393 1 1a28.829 28.829 0 0 0-1.5 4c-.64-1.765-.473-3.432.5-5Z"/></g><g style="fill:#000;opacity:1;stroke:none;stroke-opacity:1"><path style="opacity:.167;fill:#000;stroke:none;stroke-opacity:1" fill="#41779e" d="M66.5 4.5c.79.283 1.456.783 2 1.5-1.316.528-1.983.028-2-1.5Z"/></g><g style="fill:#000;opacity:1;stroke:none;stroke-opacity:1"><path style="opacity:.327;fill:#000;stroke:none;stroke-opacity:1" fill="#42789f" d="m1.5 18.5 2 1c0 .667.333 1 1 1 .172.992-.162 1.658-1 2 0-.667-.333-1-1-1a5.728 5.728 0 0 1-1-3Z"/></g><g style="fill:#000;opacity:1;stroke:none;stroke-opacity:1"><path style="opacity:.345;fill:#000;stroke:none;stroke-opacity:1" fill="#41769f" d="M160.5 23.5h2l-1 2c-.667 0-1 .333-1 1-1.125-.848-1.125-1.848 0-3Z"/></g><g style="fill:#000;opacity:1;stroke:none;stroke-opacity:1"><path style="opacity:.361;fill:#000;stroke:none;stroke-opacity:1" fill="#42779f" d="M161.5 25.5c1.125.848 1.125 1.848 0 3-2.198.091-2.531-.576-1-2 .667 0 1-.333 1-1Z"/></g><g style="fill:#000;opacity:1;stroke:none;stroke-opacity:1"><path style="opacity:.376;fill:#000;stroke:none;stroke-opacity:1" fill="#41769f" d="M20.5 28.5c.342.838 1.008 1.172 2 1 .418.722 1.084 1.222 2 1.5-1.789.52-3.456.187-5-1-1.212-1.107-.879-1.607 1-1.5Z"/></g><g style="fill:#000;opacity:1;stroke:none;stroke-opacity:1"><path style="opacity:.281;fill:#000;stroke:none;stroke-opacity:1" fill="#42799f" d="M85.5 35.5c3.297-.171 3.63.495 1 2-.797-.457-1.13-1.124-1-2Z"/></g><g style="fill:#000;opacity:1;stroke:none;stroke-opacity:1"><path style="opacity:.25;fill:#000;stroke:none;stroke-opacity:1" fill="#41769f" d="M104.5 36.5c1.101-1.098 2.434-1.265 4-.5-1.333.667-1.333 1.333 0 2a2.427 2.427 0 0 1-2 .5c0-.667-.333-1-1-1 0-.667-.333-1-1-1Z"/></g><g style="fill:#000;opacity:1;stroke:none;stroke-opacity:1"><path style="opacity:.548;fill:#000;stroke:none;stroke-opacity:1" fill="#42789f" d="M128.5 36.5c3.85.2 4.85 2.034 3 5.5-4.778.073-5.778-1.76-3-5.5Zm0 2c-.131.876.202 1.543 1 2 1.17-1.194.837-1.86-1-2Z"/></g><g style="fill:#000;opacity:1;stroke:none;stroke-opacity:1"><path style="opacity:.543;fill:#000;stroke:none;stroke-opacity:1" fill="#42789f" d="M110.5 39.5c3.909-.763 5.242.57 4 4-1.545.952-3.212 1.285-5 1-.134-1.791.199-3.458 1-5Zm1 1c-1.395 1.148-1.228 2.148.5 3 1.927-1.262 1.76-2.262-.5-3Z"/></g><g style="fill:#000;opacity:1;stroke:none;stroke-opacity:1"><path style="opacity:.125;fill:#000;stroke:none;stroke-opacity:1" fill="#40759f" d="M117.5 38.5c1.832.64 2.165 1.64 1 3-.886-.825-1.219-1.825-1-3Z"/></g><g style="fill:#000;opacity:1;stroke:none;stroke-opacity:1"><path style="opacity:.251;fill:#000;stroke:none;stroke-opacity:1" fill="#40749f" d="M54.5 39.5c2.637 1.654 2.303 2.154-1 1.5.556-.383.89-.883 1-1.5Z"/></g><g style="fill:#000;opacity:1;stroke:none;stroke-opacity:1"><path style="opacity:.368;fill:#000;stroke:none;stroke-opacity:1" fill="#41779f" d="M29.5 41.5a55.135 55.135 0 0 0 9 1.5l-4.5.5c-1.986-.069-3.485-.735-4.5-2Z"/></g><g style="fill:#000;opacity:1;stroke:none;stroke-opacity:1"><path style="opacity:.293;fill:#000;stroke:none;stroke-opacity:1" fill="#41759f" d="M70.5 42.5c4.521-.174 4.855.493 1 2-.797-.457-1.13-1.124-1-2Z"/></g><g style="fill:#000;opacity:1;stroke:none;stroke-opacity:1"><path style="opacity:.356;fill:#000;stroke:none;stroke-opacity:1" fill="#41779f" d="M117.5 42.5c4.442.383 4.776 1.383 1 3-.886-.825-1.219-1.825-1-3Z"/></g><g style="fill:#000;opacity:1;stroke:none;stroke-opacity:1"><path style="opacity:.209;fill:#000;stroke:none;stroke-opacity:1" fill="#40749f" d="M76.5 67.5c1.725.343 2.225 1.343 1.5 3-1.039-.744-1.539-1.744-1.5-3Z"/></g></svg>