<svg width="112" height="113" style="shape-rendering:geometricPrecision;text-rendering:geometricPrecision;image-rendering:optimizeQuality;fill-rule:evenodd;clip-rule:evenodd" xmlns="http://www.w3.org/2000/svg"><g style="fill:#000;opacity:1"><path style="opacity:1;fill:#000" fill="#42789f" d="M28.5-.5h2a59.847 59.847 0 0 1-2 16.5c1.251 4.67 3.418 8.837 6.5 12.5 3.614-7.569 9.114-9.569 16.5-6a18.98 18.98 0 0 1-7 2.5l-5 7c1.236 1.388 2.57 2.554 4 3.5.11.617.444 1.117 1 1.5l-4 4a2261.394 2261.394 0 0 0 71 67.5v4h-5a1608.843 1608.843 0 0 0-69-66c-.154 1.41-.32 3.076-.5 5a22.948 22.948 0 0 1-2-5 8.434 8.434 0 0 0-.5 4c-2.524.071-4.524-.929-6-3-3.349 1.33-3.682.83-1-1.5a9.468 9.468 0 0 1-2.5-1.5 54.527 54.527 0 0 1-11.5 10l-1-1a87.301 87.301 0 0 0 2.5-7 13.27 13.27 0 0 0 5.5-5c-1.188-1.34-2.688-2.007-4.5-2a176.557 176.557 0 0 0-16.5 5v-2c2.334-3.329 5.334-5.996 9-8a38.821 38.821 0 0 1 7-1.5c-5.707-1.917-11.04-4.417-16-7.5v-1c7.088-2.528 13.92-1.861 20.5 2l1-1c.965 1.76 2.132 2.094 3.5 1a71.562 71.562 0 0 1-3-13 68.705 68.705 0 0 1 7-14Zm15 48c-3.064-.481-3.898-1.814-2.5-4a16.569 16.569 0 0 0 2.5 4Zm4 5a101.995 101.995 0 0 1 10 7.5 791.667 791.667 0 0 0 24 23.5 10.123 10.123 0 0 1-4-1.5 1244.176 1244.176 0 0 0-30-29.5Zm36 33a287.315 287.315 0 0 1 25.5 24c.667.667.667 1.333 0 2a423.472 423.472 0 0 1-25-24 2.428 2.428 0 0 1-.5-2Z"/></g><path style="opacity:1" fill="#40809f" d="M43.5 34.5c1.333.667 1.333.667 0 0Z"/></svg>