<svg width="94" height="139" style="shape-rendering:geometricPrecision;text-rendering:geometricPrecision;image-rendering:optimizeQuality;fill-rule:evenodd;clip-rule:evenodd" xmlns="http://www.w3.org/2000/svg"><g style="fill:#000"><path style="opacity:1;fill:#000" fill="#42779f" d="M13.5-.5h68c-1.08 3.243-1.247 6.576-.5 10a133.814 133.814 0 0 0 5 22 339.734 339.734 0 0 0 4 33c.014 17.897 1.18 35.563 3.5 53v15c-.81.969-1.81 1.802-3 2.5l-14 1c-1.442.377-2.442 1.21-3 2.5h-21c-15.41-1.684-30.744-4.517-46-8.5a29.556 29.556 0 0 1-4.5-2.5 67.65 67.65 0 0 0-2.5-9v-35c.391-11.136 1.558-22.47 3.5-34A254.411 254.411 0 0 0 9.5 19a62.319 62.319 0 0 0-3-14.5c1.308-3.18 3.642-4.846 7-5Zm6 2c1.446-1.113 3.113-1.28 5-.5A9.47 9.47 0 0 0 22 2.5c-.67-.752-1.504-1.086-2.5-1Zm10 2a51.22 51.22 0 0 1-4-2.5c2.402-.814 4.735-.647 7 .5a7.467 7.467 0 0 1-3 2Zm4-3c1.788-.285 3.455.048 5 1-1.578.572-3.078.906-4.5 1a2.428 2.428 0 0 1-.5-2Zm20 2h-1c-.06-.543-.393-.876-1-1-2.846 1.745-5.346 1.745-7.5 0-1.011.556-1.844 1.222-2.5 2a2.428 2.428 0 0 0-.5-2c-.654 1.196-1.154 1.196-1.5 0a43.227 43.227 0 0 1 16-.5c-.916.278-1.583.778-2 1.5Zm5-1c2.475.247 2.475.913 0 2-.963-.47-.963-1.136 0-2Zm-48 1c-.283.79-.783 1.456-1.5 2-.528-1.316-.028-1.983 1.5-2Zm30 3v4a25.871 25.871 0 0 1-10-1c2.423-1.271 4.923-1.271 7.5 0a81.634 81.634 0 0 1 2.5-3Zm37 0c.934 1.068 1.268 2.401 1 4a8.434 8.434 0 0 1-4-.5c1.926-.422 2.926-1.59 3-3.5Zm-21 1c1.385.802 1.218 1.469-.5 2-.765-.07-1.265-.403-1.5-1 .992.172 1.658-.162 2-1Zm2 0c1.106.65 2.106.983 3 1-1.552 1.298-2.552.965-3-1Zm4 0a27.564 27.564 0 0 0 5 1.5l-2.5.5c-1.376-.184-2.209-.85-2.5-2Zm-39 1c.79.283 1.456.783 2 1.5-2.31.497-4.643.663-7 .5 1.46-1.922 3.127-2.59 5-2Zm30 8c1 1.333 2 1.333 3 0 .333 2.667.667 2.667 1 0a10.174 10.174 0 0 0 3-3c-.06-.543-.393-.876-1-1a30.943 30.943 0 0 1-2 2c-.01-1.517-.677-2.684-2-3.5 7.283-.629 14.45-.129 21.5 1.5a64.247 64.247 0 0 1 0 16A87.03 87.03 0 0 0 70.5 50a410.573 410.573 0 0 1-4.5 60.5c-2.24-7.241-6.907-12.241-14-15l-1-5A109.322 109.322 0 0 0 44.5 80a117.874 117.874 0 0 0-24-7 21.52 21.52 0 0 1-6-5 222.278 222.278 0 0 0-12-2.5 858.215 858.215 0 0 0 9-53.5 464 464 0 0 1 43-2c-2.135.759-3.468 2.259-4 4.5.757 1.904 1.757 2.238 3 1Zm29 59a26.532 26.532 0 0 0-2.5-11c-.667 2.667-1.333 2.667-2 0l-1 19c-1.678 1.182-1.512 2.348.5 3.5-1.453 1.713-1.286 3.213.5 4.5.667 7 .667 14 0 21l-1-2c-1.401 1.646-1.568 3.313-.5 5 1.342-2.821 2.008-2.654 2 .5a50.311 50.311 0 0 1-2.5 10.5c-.595-1.399-.428-2.732.5-4-.346-1.196-.846-1.196-1.5 0-2.617 3.269-4.283 6.935-5 11-1.415-3.911-2.082-7.911-2-12l3 4c-.04-2.846.794-5.68 2.5-8.5-1.333-.667-1.333-1.333 0-2a15.252 15.252 0 0 1-4.5-1.5l-1 1a404.6 404.6 0 0 1 3.5-32c-.616-8.546.05-17.046 2-25.5-1.965-7.982-.798-15.482 3.5-22.5l1 5c.72 1.755 1.887 2.589 3.5 2.5-.321-1.931-.988-4.098-2-6.5-.061-2.221.605-2.554 2-1 .3-2.463.8-4.796 1.5-7a79.094 79.094 0 0 1 2 10 3478.7 3478.7 0 0 1 7.5 92.5 11.292 11.292 0 0 1-2 4 84.9 84.9 0 0 1-13 .5 111.134 111.134 0 0 1 2.5-18c.718.951 1.55 1.117 2.5.5.368-1.473-.132-2.973-1.5-4.5l-1 1a608.795 608.795 0 0 1-1-39c.704 2.227 1.87 2.56 3.5 1Zm-73-14c.577-1.273 1.243-1.273 2 0-.47.963-1.136.963-2 0Zm2 25c-.065.438.101.772.5 1l3.5-3.5c-.228-.399-.562-.565-1-.5-1.098-.897-1.098-1.73 0-2.5l-3-1.5c-.333-1.333-.667-1.333-1 0-.982-.64-1.982-1.308-3-2-.925 1.14-1.759 1.14-2.5 0a2.427 2.427 0 0 0-.5 2c-.617-.11-1.117-.444-1.5-1a50.438 50.438 0 0 1-.5-10c2.357-.163 4.69.003 7 .5a39.906 39.906 0 0 1 9 6 257.785 257.785 0 0 0 18 4 32.459 32.459 0 0 1 7 3A56.552 56.552 0 0 1 50 95.5a124.343 124.343 0 0 1 12 9 57.686 57.686 0 0 1 3 8c-.111 8.335 1.389 16.335 4.5 24-21.368.204-42.368-2.63-63-8.5-1.833-.5-3-1.667-3.5-3.5-2.995-13.239-3.328-26.572-1-40 3.003 2.14 6.17 2.474 9.5 1Zm45-6c1.696.185 3.03 1.019 4 2.5-2.06 2.091-3.727 1.758-5-1 .556-.383.89-.883 1-1.5Zm19 53c1.273.577 1.273 1.243 0 2-.963-.47-.963-1.137 0-2Zm-4 2c2.5.011 2.668.678.5 2a2.427 2.427 0 0 1-.5-2Z"/></g><g style="fill:#000"><path style="opacity:1;fill:#000" fill="#42789f" d="M54.5 5.5h1c0 .667.333 1 1 1-.342.838-1.008 1.172-2 1v-2Z"/></g><g style="fill:#000"><path style="opacity:1;fill:#000" fill="#43769f" d="M13.5 15.5c.25-1.422 1.083-2.422 2.5-3 2.39.038 4.89.704 7.5 2a134.132 134.132 0 0 1-8.5 7c-2.447-1.662-2.947-3.662-1.5-6Z"/></g><g style="fill:#000"><path style="opacity:1;fill:#000" fill="#43749f" d="M60.5 12.5a10.174 10.174 0 0 1-3 3v-2a30.943 30.943 0 0 0 2-2c.607.124.94.457 1 1Z"/></g><g style="fill:#000"><path style="opacity:1;fill:#000" fill="#42759f" d="M60.5 12.5c2.146.196 2.312 1.196.5 3a4.932 4.932 0 0 1-.5-3Z"/></g><g style="fill:#000"><path style="opacity:1;fill:#000" fill="#42769f" d="M59.5 25.5c-.006-3.048.994-3.548 3-1.5-.744 1.039-1.744 1.539-3 1.5Z"/></g><g style="fill:#000"><path style="opacity:1;fill:#000" fill="#42789f" d="M40.5 34.5c5.208-.627 7.708 1.706 7.5 7 8.107-3.894 10.44-1.56 7 7-4.489 3.297-7.489 2.297-9-3-5.126 3.477-7.959 2.144-8.5-4l.5-4a10.521 10.521 0 0 0 2.5-3Z"/></g><g style="fill:#000"><path style="opacity:1;fill:#000" fill="#42789f" d="M28.5 40.5c4.596-.072 6.929 2.262 7 7-.98 5.87-3.813 7.204-8.5 4-1.924-3.977-1.424-7.644 1.5-11Z"/></g><g style="fill:#000"><path style="opacity:1;fill:#000" fill="#42789f" d="M46.5 60.5c0 .667.333 1 1 1 3.285 6.6 1.285 9.434-6 8.5-3.277-2.82-6.944-3.653-11-2.5-5.789-.939-7.289-3.939-4.5-9 5.023-1.672 9.356-4.338 13-8 4.702 1.758 7.202 5.09 7.5 10Z"/></g><g style="fill:#000"><path style="opacity:1;fill:#000" fill="#42789f" d="M47.5 61.5c-.667 0-1-.333-1-1-.06-6.8 2.94-8.966 9-6.5 2.6 2.459 2.6 4.959 0 7.5-2.66 1.203-5.327 1.203-8 0Z"/></g><g style="fill:#000"><path style="opacity:1;fill:#000" fill="#42789f" d="M65.5 55.5c3.41-.116 4.744 1.55 4 5-4.435.578-5.768-1.09-4-5Z"/></g><g style="fill:#000"><path style="opacity:1;fill:#000" fill="#42789f" d="M79.5 57.5c-.712-2.082-.212-4.082 1.5-6 .405 2.275-.095 4.275-1.5 6Z"/></g><g style="fill:#000"><path style="opacity:1;fill:#000" fill="#42779f" d="M9.5 57.5c2.984.287 4.317 1.953 4 5-4.435.578-5.768-1.09-4-5Zm0 3c.864.963 1.53.963 2 0-.757-1.273-1.423-1.273-2 0Z"/></g><g style="fill:#000"><path style="opacity:1;fill:#000" fill="#41759f" d="M82.5 74.5c2.5.01 2.668.678.5 2a2.428 2.428 0 0 1-.5-2Z"/></g><g style="fill:#000"><path style="opacity:1;fill:#000" fill="#42789f" d="M55.5 78.5c6.35.458 7.35 2.792 3 7-3.865-1.138-4.865-3.472-3-7Zm1 1c-.11.617-.444 1.117-1 1.5 1.273 2.758 2.94 3.091 5 1-.97-1.481-2.304-2.315-4-2.5Z"/></g><g style="fill:#000"><path style="opacity:1;fill:#000" fill="#43789f" d="M74.5 77.5c.79.283 1.456.783 2 1.5-1.316.528-1.983.028-2-1.5Z"/></g><g style="fill:#000"><path style="opacity:1;fill:#000" fill="#40809f" d="M11.5 80.5c1.213.997 1.046 1.997-.5 3-.47-1.077-.303-2.077.5-3Z"/></g><g style="fill:#000"><path style="opacity:1;fill:#000" fill="#43769f" d="M81.5 97.5c2.152.577 2.485 1.743 1 3.5 2.201.777 2.201 1.944 0 3.5-2.245-2.067-2.579-4.4-1-7Z"/></g><g style="fill:#000"><path style="opacity:1;fill:#000" fill="#42789f" d="M75.5 99.5c.806 1.497 1.472 3.164 2 5a4.451 4.451 0 0 1-1.5 2c-1.047-2.421-1.214-4.754-.5-7Z"/></g><g style="fill:#000"><path style="opacity:1;fill:#000" fill="#42759f" d="M9.5 109.5c-.667 0-1 .333-1 1-.667 0-1 .333-1 1h-1a13.486 13.486 0 0 1 2.5-6c1.768 1.182 1.935 2.515.5 4Z"/></g><g style="fill:#000"><path style="opacity:1;fill:#000" fill="#42769f" d="M52.5 110.5h-2c-.333-1.333-.667-1.333-1 0-.923.803-1.923.97-3 .5 1.5-2.833 3.667-5 6.5-6.5.31 1.266.81 2.433 1.5 3.5-.88.708-1.547 1.542-2 2.5Z"/></g><g style="fill:#000"><path style="opacity:1;fill:#000" fill="#44779f" d="M9.5 109.5c3.665.793 3.665 2.126 0 4-.333-1.333-.667-1.333-1 0h-1v-2c.667 0 1-.333 1-1 .667 0 1-.333 1-1Z"/></g><g style="fill:#000"><path style="opacity:1;fill:#000" fill="#41769f" d="M52.5 110.5c.992-.172 1.658.162 2 1-.667 0-1 .333-1 1-.667 0-1 .333-1 1a2.429 2.429 0 0 1-2-.5c.88-.708 1.547-1.542 2-2.5Z"/></g><g style="fill:#000"><path style="opacity:1;fill:#000" fill="#41769f" d="M54.5 111.5c2.198-.091 2.531.575 1 2-.667 0-1 .333-1 1-.992.172-1.658-.162-2-1 .667 0 1-.333 1-1 .667 0 1-.333 1-1Z"/></g><g style="fill:#000"><path style="opacity:1;fill:#000" fill="#41759f" d="M14.5 113.5c-.667 0-1 .333-1 1-.667 0-1 .333-1 1-.667 0-1 .333-1 1-2.68 2.943-3.347 2.61-2-1a25.154 25.154 0 0 0 4.5-4c.464.594.631 1.261.5 2Z"/></g><g style="fill:#000"><path style="opacity:1;fill:#000" fill="#42749f" d="M8.5 113.5h1v2c-.992.172-1.658-.162-2-1 .667 0 1-.333 1-1Z"/></g><g style="fill:#000"><path style="opacity:1;fill:#000" fill="#44799f" d="M14.5 113.5c.587 2.185-.413 3.852-3 5v-2c.667 0 1-.333 1-1 .667 0 1-.333 1-1 .667 0 1-.333 1-1Z"/></g><g style="fill:#000"><path style="opacity:1;fill:#000" fill="#44779f" d="M12.5 121.5c.973-3.148 2.973-4.981 6-5.5a46.107 46.107 0 0 1-6 5.5Z"/></g><g style="fill:#000"><path style="opacity:1;fill:#000" fill="#41799f" d="M11.5 118.5c-.017 1.528-.684 2.028-2 1.5.544-.717 1.21-1.217 2-1.5Z"/></g><g style="fill:#000"><path style="opacity:1;fill:#000" fill="#43759f" d="M16.5 123.5c.667 0 1-.333 1-1a19.565 19.565 0 0 0 4-3.5c.667-.667 1.333-.667 2 0l-6.5 6.5a2.427 2.427 0 0 1-.5-2Z"/></g><g style="fill:#000"><path style="opacity:1;fill:#000" fill="#40719f" d="M26.5 122.5c1.212.997 1.046 1.997-.5 3-.47-1.077-.303-2.077.5-3Z"/></g><g style="fill:#000"><path style="opacity:1;fill:#000" fill="#42769f" d="M82.5 123.5c1.333 0 2 .667 2 2 .948 2.413-.052 4.08-3 5a4.458 4.458 0 0 1-2-1.5 11.985 11.985 0 0 1 1-3.5c-1.373-1.85-.873-3.183 1.5-4 .464.594.631 1.261.5 2Z"/></g><g style="fill:#000"><path style="opacity:1;fill:#000" fill="#41759f" d="M17.5 120.5v2c-.667 0-1 .333-1 1-.864.963-1.53.963-2 0 .688-1.355 1.688-2.355 3-3Z"/></g><g style="fill:#000"><path style="opacity:1;fill:#000" fill="#41799f" d="M22.5 123.5c-.017 1.528-.684 2.028-2 1.5.544-.717 1.21-1.217 2-1.5Z"/></g><g style="fill:#000"><path style="opacity:1;fill:#000" fill="#42759f" d="M28.5 123.5c2.5.011 2.668.678.5 2a2.427 2.427 0 0 1-.5-2Z"/></g></svg>